<svg viewBox="0 0 24 24" fill="none" xmlns="http://www.w3.org/2000/svg">
  <path id="Vector" d="M7.41421 8.5H10.5002L10.5001 21.2931C9.02571 20.8761 7.80172 19.8588 7.11041 18.5208L6.79639 17.913L6.31264 18.3967L3.41436 21.295L2.70726 20.5879L6.37967 16.9155L6.54569 16.7495L6.52397 16.5157C6.50822 16.346 6.50015 16.174 6.50015 16V14V13.5H6.00015H2.50015V12.5H6.00015H6.50015V12V9.41436V9.20726L6.3537 9.06081L2.70711 5.41421L3.41421 4.70711L7.06066 8.35355L7.20711 8.5H7.41421ZM18.0002 13.5H17.5002V14V16C17.5002 16.1735 17.4921 16.3449 17.4765 16.514L17.4548 16.7477L17.6208 16.9137L21.295 20.5879L20.5879 21.295L17.6883 18.3954L17.2045 17.9116L16.8905 18.5196C16.1993 19.8582 14.975 20.876 13.5002 21.2931L13.5002 8.5H16.9499H17.157L17.3034 8.35355L20.9499 4.70711L21.657 5.41421L17.6466 9.42458L17.5002 9.57103V9.77813V12V12.5H18.0002H21.5002V13.5H18.0002ZM12 2.5C13.7632 2.5 15.2219 3.80385 15.4646 5.5H8.53544C8.77806 3.80385 10.2368 2.5 12 2.5Z" fill="#ffffff" stroke="#ffffff" />
</svg>
