<?xml version="1.0" encoding="utf-8"?>
<svg width="800px" height="800px" viewBox="0 -0.5 25 25" fill="none" xmlns="http://www.w3.org/2000/svg">
  <path stroke="#000000" stroke-width="1.5" stroke-linecap="round" stroke-linejoin="round" d="M9.80308 13.9531H15.1661C15.8121 13.8565 16.3302 13.369 16.4661 12.7301C16.6335 12.1305 16.4779 11.487 16.0551 11.0301C15.4281 10.4571 14.6001 9.90011 14.6001 9.06611V6.01211C14.5961 5.73972 14.4841 5.48007 14.2887 5.29027C14.0933 5.10048 13.8305 4.9961 13.5581 5.00011H11.4741C11.2017 4.9961 10.9389 5.10048 10.7435 5.29027C10.548 5.48007 10.436 5.73972 10.4321 6.01211V9.06611C10.4321 9.90411 9.60508 10.4571 8.97708 11.0331C8.55425 11.49 8.39867 12.1335 8.56608 12.7331C8.67696 13.3615 9.17323 13.8509 9.80308 13.9531Z" />
  <path stroke="#000000" stroke-width="1.5" stroke-linecap="round" d="M12.4841 13.9531V19.0001" />
</svg>
